<svg width="33" height="33" viewBox="0 0 33 33" fill="none" xmlns="http://www.w3.org/2000/svg">
<rect x="6" y="7" width="19" height="17" fill="#6A4029"/>
<path d="M16.32 0C7.3066 0 0 7.3066 0 16.32C0 25.3334 7.3066 32.64 16.32 32.64C25.3334 32.64 32.64 25.3334 32.64 16.32C32.64 7.3066 25.3334 0 16.32 0ZM22.9585 13.3688C22.9653 13.5082 22.967 13.6476 22.967 13.7836C22.967 18.0336 19.7353 22.9313 13.8227 22.9313C12.0756 22.9342 10.3648 22.4324 8.8961 21.4863C9.14599 21.5169 9.40274 21.5288 9.66279 21.5288C11.169 21.5288 12.5545 21.0171 13.6544 20.1535C12.9841 20.1403 12.3346 19.9184 11.7965 19.5186C11.2584 19.1188 10.8583 18.5611 10.6522 17.9231C11.1335 18.0147 11.6294 17.9954 12.1023 17.867C11.3747 17.7199 10.7206 17.3257 10.2505 16.7512C9.78043 16.1768 9.52359 15.4575 9.52339 14.7152V14.6761C9.95694 14.9158 10.4533 15.062 10.9803 15.079C10.2983 14.625 9.8154 13.9276 9.63054 13.1293C9.44568 12.3311 9.57284 11.4924 9.98579 10.7848C10.7932 11.7776 11.8001 12.5898 12.9414 13.1687C14.0826 13.7477 15.3327 14.0806 16.6107 14.1457C16.4482 13.456 16.5182 12.732 16.8096 12.0861C17.1011 11.4403 17.5977 10.9089 18.2224 10.5745C18.8471 10.24 19.5648 10.1213 20.2638 10.2368C20.9629 10.3523 21.6043 10.6956 22.0881 11.2132C22.8075 11.0709 23.4974 10.8069 24.1281 10.4329C23.8883 11.1777 23.3864 11.8102 22.7154 12.2128C23.3526 12.1361 23.9748 11.9647 24.5616 11.7045C24.1307 12.3504 23.5877 12.914 22.9585 13.3688Z" fill="#FFBA33"/>
</svg>
